<svg xmlns="http://www.w3.org/2000/svg" viewBox="0 0 170 170">
  <g stroke="black" stroke-linecap="round" stroke-linejoin="round" stroke-width="3" paint-order="stroke fill markers">
    <path fill="#73a6e5" d="M94.08 64.96c-12.01-.21-30.25 4.95-33.65 8.97-3.4 4.03-1.33 12.51 5.67 11.98 7-.53 10.91-3.29 10.91-3.29"/>
    <path fill="#ff8a8a" d="M124.2 60.34c1.1-6.12 10.1-6.26 11.1-.4.55 5.67 1.94 16.07.48 19.21-1.45 3.14-10.14 6.31-13.88-6.36 0 0-9.65-5.52-19.88 4.07-10.24 9.6-31.56 34.35-22.54 55.82s34.08 8 43.84-1.62c5.89-3.07 12.82 4.9 8.87 9.78-9.38 10.35-21.62 15.85-36.31 16.69-16.44-.72-30.47-11.77-32.29-33.26-1.81-21.5 21.84-55.5 37.12-62.42 15.28-6.92 23.5-1.51 23.5-1.51z"/>
    <path fill="#73a6e5" d="M69.91 107.53c-16.48 2.82-25.34-5.74-23.1-27.82C49.03 57.63 66.83 27.66 79 28.08c12.16.42 11.93 5.18 19.47 6.76h0c7.55 1.59 9.64-6.72 6.83-10.02-2.8-3.3-15.87-10.31-26.93-10.02-11.06.29-16.86 6.63-26.98 18.04-10.12 11.42-18.16 34.78-18.5 54.91-.34 20.13 11 29.55 23.69 33.2 12.7 3.67 31.27-4.24 37.32-9.58 6.05-5.34 18.72-20.62 19.4-34.78 2.09-1.33 3.33-3.72 3.33-3.72s-8.77-2.61-19.42 11c-3.05 8.36-10.82 20.83-27.3 23.66z"/>
  </g>
</svg>
