<svg viewBox="0 0 176 176" xmlns="http://www.w3.org/2000/svg">
  <defs></defs>
  <path fill="#bfccc1" stroke="#5e7362" d="M 88,0.5 C 64,.5 32,-4 14,14 -4,32 .5,64 .5,88 c 0,49 38.5,87.5 87.5,87.5 24,0 56,4 74,-13.5 18,-17.5 13.5,-49 13.5,-74 C 175.5,39 136,.5 88,.5 Z"/>
  <circle fill="white" stroke="#6b6b6b" cx="88" cy="88" r="81"/>
  <g id="GC_letters"
     stroke="black"
     stroke-width="3"
     stroke-linecap="round"
     stroke-linejoin="round"
     paint-order="stroke fill markers">
    <path fill="#73a6e5" d="m 94.1,64.96 c -12,-.21 -30.25,4.95 -33.65,8.97 -3.4,4.03 -1.33,12.5 5.67,12 7,-0.53 10.9,-3.3 10.9,-3.3"/>
    <path fill="#ff8a8a" d="m 124.2,60.34 c 1.1,-6.12 10.1,-6.26 11.1,-0.4 0.55,5.67 1.94,16.07 0.48,19.21 -1.45,3.14 -10.14,6.31 -13.88,-6.36 0,0 -9.65,-5.52 -19.88,4.07 -10.24,9.6 -31.56,34.35 -22.54,55.82 9.02,21.47 34.08,8 43.84,-1.62 5.89,-3.07 12.82,4.9 8.87,9.78 -9.38,10.35 -21.62,15.85 -36.31,16.69 -16.44,-0.72 -30.47,-11.77 -32.29,-33.26 -1.81,-21.5 21.84,-55.5 37.12,-62.42 15.28,-6.92 23.5,-1.51 23.5,-1.51 z"/>
    <path fill="#73a6e5" d="M 69.91,107.53 C 53.43,110.35 44.57,101.79 46.81,79.71 49.03,57.63 66.83,27.66 79,28.08 c 12.16,0.42 11.93,5.18 19.47,6.76 v 0 c 7.55,1.59 9.64,-6.72 6.83,-10.02 C 102.5,21.52 89.43,14.51 78.37,14.8 67.31,15.09 61.51,21.43 51.39,32.84 41.27,44.26 33.23,67.62 32.89,87.75 c -0.34,20.13 11,29.55 23.69,33.2 12.7,3.67 31.27,-4.24 37.32,-9.58 6.05,-5.34 18.72,-20.62 19.4,-34.78 2.09,-1.33 3.33,-3.72 3.33,-3.72 0,0 -8.77,-2.61 -19.42,11 -3.05,8.36 -10.82,20.83 -27.3,23.66 z"/>
  </g>
  <path fill="white" fill-opacity=".3" d="M 10,122 C 34,144 178,73 136,18 110,0 67,-5 33,24 -1,53 -1,98 10,122 Z"/>
</svg>

