<svg width="128" height="128" xmlns="http://www.w3.org/2000/svg" viewBox="0 0 752 752">
  <path fill="#fffaf0" stroke="black" stroke-width="8" d="M12 127c-9 11 0 196 0 196 120 0 135-58 132 100s-22 90-132 94c0 0-13 213 0 222s712 12 727 0 7-601 0-612-239 1-239 1C544 6 526 4 392 4S257 6 286 128c0 0-265-12-274-1Z"/>
  <g stroke="black" stroke-linecap="round" stroke-linejoin="round" stroke-width="24" paint-order="stroke fill markers">
    <path fill="#385683" d="M441 364c-38-1-96 16-107 29s-4 40 18 38 35-11 35-11"/>
    <path fill="#d01f1f" d="M537 349c4-19 33-20 36-1 2 18 6 51 1 61s-32 20-44-20c0 0-30-18-63 13s-101 109-72 178c29 68 108 26 139-5 19-10 42 15 29 31-30 33-69 50-116 53-52-2-97-38-103-106s70-177 118-199c23-9 53-18 75-5Z"/>
    <path fill="#3d87e7" d="M364 500c-52 9-80-19-73-89s64-165 102-164c39 1 38 16 62 21s31-21 22-32-51-33-86-32-54 21-86 58c-32 36-57 110-58 174s35 94 75 106 100-13 119-30 60-66 62-111c7-4 10-12 10-12s-28-8-62 35c-10 27-35 67-87 76z"/>
  </g>
</svg>
