<svg xmlns="http://www.w3.org/2000/svg" viewBox="0 0 176 176" width="32" height="32">
  <path fill="#7b4444" d="M128.34 55.65a5.65 5.65 0 0 0-5.58 4.68c-.05-.03-8.26-5.38-23.5 1.52-11.12 5.04-26.68 24.43-33.62 42.9-1.54 3.19 12.67-.91 16.39-4.32 5.48-10.12 13.4-18.75 18.55-23.57 10.23-9.6 19.88-4.07 19.88-4.07 3.74 12.67 12.43 9.5 13.88 6.36 1.46-3.14.07-13.54-.48-19.21-.5-2.93-3-4.36-5.52-4.3zm-66.2 68.62c1.83 21.49 15.86 32.54 32.3 33.26 14.69-.84 26.93-6.34 36.3-16.69 3.96-4.88-2.97-12.85-8.86-9.78-9.76 9.62-34.82 23.09-43.84 1.62a28.1 28.1 0 0 1-2.17-11c-4.3 2.03-9.94 2.25-13.72 2.59z"/>
  <path fill="#8191a4" d="M76.93 14.8c-11.06.3-16.86 6.63-26.98 18.04-10.12 11.42-18.16 34.78-18.5 54.91-.34 20.13 11 29.55 23.69 33.2 12.7 3.67 31.27-4.24 37.32-9.58 6.05-5.34 18.72-20.62 19.4-34.78 2.09-1.33 3.33-3.72 3.33-3.72s-4.64-1.38-11.26 3.1a36.54 36.54 0 0 0-8.16 7.9c-3.05 8.36-10.82 20.83-27.3 23.66-16.48 2.82-25.34-5.74-23.1-27.82 2.22-22.08 20.02-52.05 32.19-51.63 12.16.42 11.93 5.18 19.47 6.76 7.55 1.59 9.64-6.72 6.83-10.02-2.8-3.3-15.87-10.3-26.93-10.02zm10.44 49.17c-6.52-.07-25.92 7.07-28.36 9.96-3.4 4.03-1.33 12.5 5.67 12 7-.53 11.3-7.49 22.62-17.88 3.19-2.92 2.61-4.06.07-4.08z"/>
  <path fill="#6b6b6b" d="M86.55.5C76.8.5 65.33 12.84 54.4 13.17c-15.94.48-33.2-17.23-41.85.83C3.9 32.06 23.73 41.46 4.41 65.95c-19.33 24.48 40.98 41.04 9.03 57.68-19.15 9.98-1.62 60.5 33.5 42.16 13.17-6.89 28.34 9.71 39.61 9.71 24 0 56 4 74-13.5s13.5-49 13.5-74c0-14.15 4.95-67.39-23-41.34-14.74 13.76-41.16-10.18-33.72-23.55C128.93 2.25 104.31.5 86.55.5ZM72.88 11.07c11.59-1.87 28.9 6.19 32.75 9.85 3.85 3.67 4.39 8.3 2.42 12.37-1.97 4.07-4.78 5.39-9.19 5.87-4.41.48-14.3-7.34-20.84-7.07-8.55.6-16 13.23-21.35 23.95-5.35 10.72-8.42 25.41-7.6 32.38.8 6.98 2.34 10.93 5.29 13.22 2.96 2.3 7.32 2.37 7.32 2.37s3.78-9.63 6.8-14.54c-9.61 2-13.06-3.76-13.81-5.34-.75-1.57-3.5-8.8 2.43-13.97 5.93-5.16 28.13-9.67 35.75-9.2 11.79-7.5 21.63-7.29 27.94-5.74 1.58-2.16 6.33-4.42 10.3-3.25 3.96 1.17 7 3 7.68 16.63.66 13.64-1.5 14.38-5.3 16.45-3.78 2.07-11.57 1.86-15.95-8.4 0 0-1.35 1.68-1.82 2.02-2.95 20.2-20.63 39.17-35.92 43.75 1.25 7.4 2.6 13.44 9.35 16.75 6.75 3.31 20.78-2.71 27.11-8.65 6.34-5.93 12.08-4.82 15.3-1.73 3.24 3.09 6.35 6.64 3.34 13.22-3.02 6.59-23.08 18.95-39.02 19.55-15.95.6-34.8-10.76-37.66-35.57-12.06-2.54-25.48-9.53-29.7-26.93-4.23-17.4 4.39-50.56 13.7-62.69 9.32-12.12 19.1-23.42 30.68-25.3Z"/>
  <path fill="#979797" d="M24.91 9.64c-6.44.09-5.63 4.77-7.29 7-8.7 10.79 8.13 37.57-8.9 51.77-10.44 8.7 2.19 24.18 2.19 24.18 5.43-1.7-4.4-17.95 3.81-23.9 8.21-5.96 3.25-57.56 13.95-52.16 9.53 2.13 34.49 1.77 17.8-.58-11.2-4.77-17.69-6.37-21.56-6.31Zm135.43 59.73c-9.93 38.93 21.15 94.34-72.45 99.3 0 0 46.84 5.51 68.05-14.77 21.22-20.28 4.4-84.53 4.4-84.53z"/>
</svg>
